<svg class="icon" viewBox="0 0 1024 1024" xmlns="http://www.w3.org/2000/svg" width="200" height="200"><path d="M924.8 799.103c5.826 39.613 39.619 33.787 45.444 51.264 0 11.062-5.825 51.263-22.719 56.506-16.894 0-39.613-5.825-56.506 0-11.063 5.826-22.714 11.068-28.54 22.72-11.067 28.538 11.063 51.257 0 62.326-16.893 11.068-51.269 28.544-62.331 16.893-16.894-16.893-16.894-39.618-51.264-39.618-45.444 0-45.444 45.444-68.157 45.444-22.72 0-62.332-16.894-62.332-33.794 5.825-22.713 16.893-39.607-5.826-62.326-28.544-22.719-62.332 0-73.983-11.068-16.887-11.068-22.713-39.613-16.887-56.5 5.825-16.895 45.438-16.895 45.438-62.339 0-33.781-39.613-39.607-45.438-62.326-5.826-16.894 5.825-45.444 22.713-51.27 28.544-11.062 45.438 11.069 73.983-11.062 16.893-16.888 11.068-56.507 11.068-68.157 5.825-16.894 28.539-22.72 45.438-22.72 33.788 0 22.714 39.62 68.158 45.445 45.438 0 39.613-16.894 62.326-45.445 28.544 0 51.27 11.069 56.507 22.72 11.068 22.719-11.063 56.506 22.719 79.225 28.538 16.894 56.506-5.825 73.983 0 11.062 5.826 16.887 22.72 22.713 45.444-11.063 33.194-62.332 27.368-56.507 78.638zM720.334 685.507c-136.315 33.788-85.051 232.434 45.438 210.298 131.072-28.55 113.596-238.842-45.438-210.298zm-232.435-198.64c-136.314 0-244.085-107.771-244.085-244.086S351.584-1.304 487.9-1.304c136.31 0 244.08 107.77 244.08 244.085.006 130.49-107.765 244.085-244.08 244.085zm198.647 56.5s-90.882 0-85.057 62.332c5.826 68.157-85.05 16.888-101.939 73.983-22.719 68.151 11.063 56.5 28.539 101.945 11.068 28.544-45.438 45.438-39.613 96.702 11.068 68.157 68.158 33.793 85.051 73.982 11.069 33.788-28.538 56.507-119.42 56.507-73.978 0-215.541 0-266.805-5.825 0 0-147.383-5.826-147.383-101.945 0 0-5.826-142.14 85.05-244.085 0 0 96.703-124.664 260.986-124.664l300.591 11.068z"/></svg>