<svg class="icon" viewBox="0 0 1024 1024" xmlns="http://www.w3.org/2000/svg" width="128" height="128"><path d="M1019.459 56.323H4.541c-5.696 0-10.356 4.66-10.356 10.356v82.85c0 5.696 4.66 10.357 10.356 10.357h1014.918c5.696 0 10.356-4.66 10.356-10.357V66.68c0-5.696-4.66-10.356-10.356-10.356zm0 807.791H4.541c-5.696 0-10.356 4.66-10.356 10.357v82.85c0 5.696 4.66 10.356 10.356 10.356h1014.918c5.696 0 10.356-4.66 10.356-10.356v-82.85c0-5.696-4.66-10.357-10.356-10.357zm0-403.896H4.541c-5.696 0-10.356 4.66-10.356 10.357v82.85c0 5.696 4.66 10.357 10.356 10.357h1014.918c5.696 0 10.356-4.66 10.356-10.357v-82.85c0-5.696-4.66-10.357-10.356-10.357z"/></svg>