<svg class="icon" viewBox="0 0 1024 1024" xmlns="http://www.w3.org/2000/svg" width="128" height="128"><path d="M968.19 179.564c0-53.384-43.678-111.62-92.209-126.18 0 0-135.886-53.384-359.128-53.384S148.02 58.237 148.02 58.237c-48.531 14.56-92.21 67.943-92.21 121.327 0 0-9.706 407.659 0 456.19 48.531 237.8 388.247 383.393 461.043 383.393 67.943 0 407.659-145.592 451.337-383.393 9.706-48.531 0-456.19 0-456.19zM691.564 436.777L492.588 635.754c-4.853 0-9.706 4.853-19.413 0-9.706 0-14.559 0-19.412-4.854L351.848 528.986c-9.706-9.706-9.706-24.266 0-33.972 9.707-9.706 24.266-9.706 33.972 0l92.208 92.209 184.417-184.417c9.707-9.706 24.266-9.706 33.972 0 4.853 4.853 4.853 24.265-4.853 33.971z"/></svg>